<svg id="visual" viewBox="0 0 2560 1440" width="2560" height="1440" xmlns="http://www.w3.org/2000/svg" xmlns:xlink="http://www.w3.org/1999/xlink" version="1.1"><path d="M0 945L47.3 917.7C94.7 890.3 189.3 835.7 284.2 802.5C379 769.3 474 757.7 568.8 758.8C663.7 760 758.3 774 853.2 797.8C948 821.7 1043 855.3 1137.8 866.5C1232.7 877.7 1327.3 866.3 1422.2 875.8C1517 885.3 1612 915.7 1706.8 910.7C1801.7 905.7 1896.3 865.3 1991.2 872.5C2086 879.7 2181 934.3 2275.8 958.3C2370.7 982.3 2465.3 975.7 2512.7 972.3L2560 969L2560 1441L2512.7 1441C2465.3 1441 2370.7 1441 2275.8 1441C2181 1441 2086 1441 1991.2 1441C1896.3 1441 1801.7 1441 1706.8 1441C1612 1441 1517 1441 1422.2 1441C1327.3 1441 1232.7 1441 1137.8 1441C1043 1441 948 1441 853.2 1441C758.3 1441 663.7 1441 568.8 1441C474 1441 379 1441 284.2 1441C189.3 1441 94.7 1441 47.3 1441L0 1441Z" fill="#abfa69"></path><path d="M0 990L47.3 972.5C94.7 955 189.3 920 284.2 909.8C379 899.7 474 914.3 568.8 943.3C663.7 972.3 758.3 1015.7 853.2 1038.3C948 1061 1043 1063 1137.8 1052.5C1232.7 1042 1327.3 1019 1422.2 988.8C1517 958.7 1612 921.3 1706.8 905.7C1801.7 890 1896.3 896 1991.2 928C2086 960 2181 1018 2275.8 1029.7C2370.7 1041.3 2465.3 1006.7 2512.7 989.3L2560 972L2560 1441L2512.7 1441C2465.3 1441 2370.7 1441 2275.8 1441C2181 1441 2086 1441 1991.2 1441C1896.3 1441 1801.7 1441 1706.8 1441C1612 1441 1517 1441 1422.2 1441C1327.3 1441 1232.7 1441 1137.8 1441C1043 1441 948 1441 853.2 1441C758.3 1441 663.7 1441 568.8 1441C474 1441 379 1441 284.2 1441C189.3 1441 94.7 1441 47.3 1441L0 1441Z" fill="#91ed58"></path><path d="M0 1155L47.3 1131.7C94.7 1108.3 189.3 1061.7 284.2 1043C379 1024.3 474 1033.7 568.8 1042.3C663.7 1051 758.3 1059 853.2 1060.5C948 1062 1043 1057 1137.8 1048.2C1232.7 1039.3 1327.3 1026.7 1422.2 1028C1517 1029.3 1612 1044.7 1706.8 1063.8C1801.7 1083 1896.3 1106 1991.2 1094.3C2086 1082.7 2181 1036.3 2275.8 1044C2370.7 1051.7 2465.3 1113.3 2512.7 1144.2L2560 1175L2560 1441L2512.7 1441C2465.3 1441 2370.7 1441 2275.8 1441C2181 1441 2086 1441 1991.2 1441C1896.3 1441 1801.7 1441 1706.8 1441C1612 1441 1517 1441 1422.2 1441C1327.3 1441 1232.7 1441 1137.8 1441C1043 1441 948 1441 853.2 1441C758.3 1441 663.7 1441 568.8 1441C474 1441 379 1441 284.2 1441C189.3 1441 94.7 1441 47.3 1441L0 1441Z" fill="#75e047"></path><path d="M0 1202L47.3 1209C94.7 1216 189.3 1230 284.2 1233C379 1236 474 1228 568.8 1216.3C663.7 1204.7 758.3 1189.3 853.2 1183.5C948 1177.7 1043 1181.3 1137.8 1183.2C1232.7 1185 1327.3 1185 1422.2 1185.5C1517 1186 1612 1187 1706.8 1173.2C1801.7 1159.3 1896.3 1130.7 1991.2 1117.8C2086 1105 2181 1108 2275.8 1112.5C2370.7 1117 2465.3 1123 2512.7 1126L2560 1129L2560 1441L2512.7 1441C2465.3 1441 2370.7 1441 2275.8 1441C2181 1441 2086 1441 1991.2 1441C1896.3 1441 1801.7 1441 1706.8 1441C1612 1441 1517 1441 1422.2 1441C1327.3 1441 1232.7 1441 1137.8 1441C1043 1441 948 1441 853.2 1441C758.3 1441 663.7 1441 568.8 1441C474 1441 379 1441 284.2 1441C189.3 1441 94.7 1441 47.3 1441L0 1441Z" fill="#55d436"></path><path d="M0 1271L47.3 1263.8C94.7 1256.7 189.3 1242.3 284.2 1240.8C379 1239.3 474 1250.7 568.8 1254.7C663.7 1258.7 758.3 1255.3 853.2 1254C948 1252.7 1043 1253.3 1137.8 1272C1232.7 1290.7 1327.3 1327.3 1422.2 1342.5C1517 1357.7 1612 1351.3 1706.8 1339.3C1801.7 1327.3 1896.3 1309.7 1991.2 1304.7C2086 1299.7 2181 1307.3 2275.8 1300.8C2370.7 1294.3 2465.3 1273.7 2512.7 1263.3L2560 1253L2560 1441L2512.7 1441C2465.3 1441 2370.7 1441 2275.8 1441C2181 1441 2086 1441 1991.2 1441C1896.3 1441 1801.7 1441 1706.8 1441C1612 1441 1517 1441 1422.2 1441C1327.3 1441 1232.7 1441 1137.8 1441C1043 1441 948 1441 853.2 1441C758.3 1441 663.7 1441 568.8 1441C474 1441 379 1441 284.2 1441C189.3 1441 94.7 1441 47.3 1441L0 1441Z" fill="#29c724"></path></svg>