<svg id="visual" viewBox="0 0 3840 2160" width="3840" height="2160" xmlns="http://www.w3.org/2000/svg" xmlns:xlink="http://www.w3.org/1999/xlink" version="1.1"><path d="M0 1188L91.5 1232.3C183 1276.7 366 1365.3 548.8 1350.5C731.7 1335.7 914.3 1217.3 1097.2 1164.5C1280 1111.7 1463 1124.3 1645.8 1175.5C1828.7 1226.7 2011.3 1316.3 2194.2 1352.8C2377 1389.3 2560 1372.7 2742.8 1389C2925.7 1405.3 3108.3 1454.7 3291.2 1424C3474 1393.3 3657 1282.7 3748.5 1227.3L3840 1172L3840 2161L3748.5 2161C3657 2161 3474 2161 3291.2 2161C3108.3 2161 2925.7 2161 2742.8 2161C2560 2161 2377 2161 2194.2 2161C2011.3 2161 1828.7 2161 1645.8 2161C1463 2161 1280 2161 1097.2 2161C914.3 2161 731.7 2161 548.8 2161C366 2161 183 2161 91.5 2161L0 2161Z" fill="#88fa69"></path><path d="M0 1289L91.5 1300.5C183 1312 366 1335 548.8 1348.8C731.7 1362.7 914.3 1367.3 1097.2 1403.3C1280 1439.3 1463 1506.7 1645.8 1526.5C1828.7 1546.3 2011.3 1518.7 2194.2 1491.2C2377 1463.7 2560 1436.3 2742.8 1443.3C2925.7 1450.3 3108.3 1491.7 3291.2 1500C3474 1508.3 3657 1483.7 3748.5 1471.3L3840 1459L3840 2161L3748.5 2161C3657 2161 3474 2161 3291.2 2161C3108.3 2161 2925.7 2161 2742.8 2161C2560 2161 2377 2161 2194.2 2161C2011.3 2161 1828.7 2161 1645.8 2161C1463 2161 1280 2161 1097.2 2161C914.3 2161 731.7 2161 548.8 2161C366 2161 183 2161 91.5 2161L0 2161Z" fill="#72ed66"></path><path d="M0 1746L91.5 1732C183 1718 366 1690 548.8 1680C731.7 1670 914.3 1678 1097.2 1671C1280 1664 1463 1642 1645.8 1637.2C1828.7 1632.3 2011.3 1644.7 2194.2 1619C2377 1593.3 2560 1529.7 2742.8 1532C2925.7 1534.3 3108.3 1602.7 3291.2 1608C3474 1613.3 3657 1555.7 3748.5 1526.8L3840 1498L3840 2161L3748.5 2161C3657 2161 3474 2161 3291.2 2161C3108.3 2161 2925.7 2161 2742.8 2161C2560 2161 2377 2161 2194.2 2161C2011.3 2161 1828.7 2161 1645.8 2161C1463 2161 1280 2161 1097.2 2161C914.3 2161 731.7 2161 548.8 2161C366 2161 183 2161 91.5 2161L0 2161Z" fill="#5ce062"></path><path d="M0 1663L91.5 1677.3C183 1691.7 366 1720.3 548.8 1752.2C731.7 1784 914.3 1819 1097.2 1808.5C1280 1798 1463 1742 1645.8 1730.5C1828.7 1719 2011.3 1752 2194.2 1781.7C2377 1811.3 2560 1837.7 2742.8 1840.2C2925.7 1842.7 3108.3 1821.3 3291.2 1806.8C3474 1792.3 3657 1784.7 3748.5 1780.8L3840 1777L3840 2161L3748.5 2161C3657 2161 3474 2161 3291.2 2161C3108.3 2161 2925.7 2161 2742.8 2161C2560 2161 2377 2161 2194.2 2161C2011.3 2161 1828.7 2161 1645.8 2161C1463 2161 1280 2161 1097.2 2161C914.3 2161 731.7 2161 548.8 2161C366 2161 183 2161 91.5 2161L0 2161Z" fill="#44d35e"></path><path d="M0 1925L91.5 1930.8C183 1936.7 366 1948.3 548.8 1942.3C731.7 1936.3 914.3 1912.7 1097.2 1927.3C1280 1942 1463 1995 1645.8 2002C1828.7 2009 2011.3 1970 2194.2 1968.8C2377 1967.7 2560 2004.3 2742.8 2014C2925.7 2023.7 3108.3 2006.3 3291.2 1995.7C3474 1985 3657 1981 3748.5 1979L3840 1977L3840 2161L3748.5 2161C3657 2161 3474 2161 3291.2 2161C3108.3 2161 2925.7 2161 2742.8 2161C2560 2161 2377 2161 2194.2 2161C2011.3 2161 1828.7 2161 1645.8 2161C1463 2161 1280 2161 1097.2 2161C914.3 2161 731.7 2161 548.8 2161C366 2161 183 2161 91.5 2161L0 2161Z" fill="#24c75a"></path></svg>