<svg id="layeredWaves" viewBox="0 0 540 960" width="540" height="960" xmlns="http://www.w3.org/2000/svg" xmlns:xlink="http://www.w3.org/1999/xlink" version="1.1"><rect x="0" y="0" width="540" height="960" fill="#d2d2d2"></rect><path d="M0 650L12.8 654.5C25.7 659 51.3 668 77 675C102.7 682 128.3 687 154 693.3C179.7 699.7 205.3 707.3 231.2 703.8C257 700.3 283 685.7 308.8 665.7C334.7 645.7 360.3 620.3 386 604.2C411.7 588 437.3 581 463 588.7C488.7 596.3 514.3 618.7 527.2 629.8L540 641L540 961L527.2 961C514.3 961 488.7 961 463 961C437.3 961 411.7 961 386 961C360.3 961 334.7 961 308.8 961C283 961 257 961 231.2 961C205.3 961 179.7 961 154 961C128.3 961 102.7 961 77 961C51.3 961 25.7 961 12.8 961L0 961Z" fill="#abfa69"></path><path d="M0 727L12.8 729.3C25.7 731.7 51.3 736.3 77 740.3C102.7 744.3 128.3 747.7 154 736.3C179.7 725 205.3 699 231.2 694.5C257 690 283 707 308.8 719.5C334.7 732 360.3 740 386 747.3C411.7 754.7 437.3 761.3 463 750.2C488.7 739 514.3 710 527.2 695.5L540 681L540 961L527.2 961C514.3 961 488.7 961 463 961C437.3 961 411.7 961 386 961C360.3 961 334.7 961 308.8 961C283 961 257 961 231.2 961C205.3 961 179.7 961 154 961C128.3 961 102.7 961 77 961C51.3 961 25.7 961 12.8 961L0 961Z" fill="#91ed58"></path><path d="M0 768L12.8 766.7C25.7 765.3 51.3 762.7 77 756.3C102.7 750 128.3 740 154 747.7C179.7 755.3 205.3 780.7 231.2 775.7C257 770.7 283 735.3 308.8 724.3C334.7 713.3 360.3 726.7 386 732.5C411.7 738.3 437.3 736.7 463 740C488.7 743.3 514.3 751.7 527.2 755.8L540 760L540 961L527.2 961C514.3 961 488.7 961 463 961C437.3 961 411.7 961 386 961C360.3 961 334.7 961 308.8 961C283 961 257 961 231.2 961C205.3 961 179.7 961 154 961C128.3 961 102.7 961 77 961C51.3 961 25.7 961 12.8 961L0 961Z" fill="#75e047"></path><path d="M0 829L12.8 819.5C25.7 810 51.3 791 77 781.3C102.7 771.7 128.3 771.3 154 777.2C179.7 783 205.3 795 231.2 805.2C257 815.3 283 823.7 308.8 829.7C334.7 835.7 360.3 839.3 386 842.8C411.7 846.3 437.3 849.7 463 846.2C488.7 842.7 514.3 832.3 527.2 827.2L540 822L540 961L527.2 961C514.3 961 488.7 961 463 961C437.3 961 411.7 961 386 961C360.3 961 334.7 961 308.8 961C283 961 257 961 231.2 961C205.3 961 179.7 961 154 961C128.3 961 102.7 961 77 961C51.3 961 25.7 961 12.8 961L0 961Z" fill="#55d436"></path><path d="M0 919L12.8 910C25.7 901 51.3 883 77 876.2C102.7 869.3 128.3 873.7 154 879.2C179.7 884.7 205.3 891.3 231.2 893.2C257 895 283 892 308.8 890.3C334.7 888.7 360.3 888.3 386 892.5C411.7 896.7 437.3 905.3 463 900.3C488.7 895.3 514.3 876.7 527.2 867.3L540 858L540 961L527.2 961C514.3 961 488.7 961 463 961C437.3 961 411.7 961 386 961C360.3 961 334.7 961 308.8 961C283 961 257 961 231.2 961C205.3 961 179.7 961 154 961C128.3 961 102.7 961 77 961C51.3 961 25.7 961 12.8 961L0 961Z" fill="#29c724"></path></svg>